<?xml version="1.0" encoding="UTF-8"?>
<svg version="1.1" xmlns="http://www.w3.org/2000/svg" width="64" height="64">
<path d="M0 0 C3.61116998 0.19519838 4.78426187 0.77260035 7.3125 3.4375 C9 6 9 6 9 8 C13.29 8 17.58 8 22 8 C22.66 6.35 23.32 4.7 24 3 C25.125 1.1875 25.125 1.1875 27 0 C32.03936 -0.73152 32.03936 -0.73152 35 0 C37.31239492 1.8089788 38.37934268 3.46772294 40 6 C40 6.66 40 7.32 40 8 C44.29 8 48.58 8 53 8 C53.66 6.02 54.32 4.04 55 2 C58 0 58 0 60.6875 0.375 C61.450625 0.58125 62.21375 0.7875 63 1 C63.05472088 2.39538254 63.09311538 3.79140897 63.125 5.1875 C63.14820312 5.96480469 63.17140625 6.74210938 63.1953125 7.54296875 C62.97166895 10.35640456 62.04902895 12.38934841 61 15 C60.76031748 16.9547441 60.55329962 18.91370414 60.375 20.875 C59.48076036 26.5854594 57.78792246 29.36444519 53.1484375 32.78125 C49.9235005 34.61066881 47.7144947 35.2026088 44 35 C39.99112185 33.61296199 37.45710873 31.50522544 34.625 28.375 C32.49192629 23.94476998 32.19234841 19.86641482 32 15 C31.34 15 30.68 15 30 15 C29.97421875 15.65226562 29.9484375 16.30453125 29.921875 16.9765625 C29.55027022 22.70265437 28.98864985 26.59149228 25 31 C21.59815135 33.77719158 18.97791625 34.94665911 14.5625 35.1875 C9.56019341 33.52006447 6.11068272 31.31104029 3 27 C2.08583701 23.9243494 1.64176792 21.05944708 1.3515625 17.8671875 C0.99091955 14.92594392 0.09472179 12.73460624 -1 10 C-1.23046875 7.578125 -1.23046875 7.578125 -1.1875 5.25 C-1.18105469 4.47140625 -1.17460937 3.6928125 -1.16796875 2.890625 C-1 1 -1 1 0 0 Z " fill="#EBDCD7" transform="translate(1,9)"/>
<path d="M0 0 C0.7425 0.2475 1.485 0.495 2.25 0.75 C2.30472088 2.14538254 2.34311538 3.54140897 2.375 4.9375 C2.39820312 5.71480469 2.42140625 6.49210938 2.4453125 7.29296875 C2.22166895 10.10640456 1.29902895 12.13934841 0.25 14.75 C0.01031748 16.7047441 -0.19670038 18.66370414 -0.375 20.625 C-1.2695894 26.33769296 -2.96943748 29.10101065 -7.58984375 32.5390625 C-10.70299381 34.28422799 -13.19300483 34.81840375 -16.75 34.75 C-19.1875 33.8125 -19.1875 33.8125 -20.75 32.75 C-20.75 32.09 -20.75 31.43 -20.75 30.75 C-20.09 30.42 -19.43 30.09 -18.75 29.75 C-19.41 29.09 -20.07 28.43 -20.75 27.75 C-20.42486339 20.92213115 -20.42486339 20.92213115 -18.5625 17.6875 C-16.75 16.75 -16.75 16.75 -13.75 16.75 C-10.75 17.75 -10.75 17.75 -8.875 20.3125 C-8.318125 21.5190625 -8.318125 21.5190625 -7.75 22.75 C-8.08 21.1 -8.41 19.45 -8.75 17.75 C-7.76 17.42 -6.77 17.09 -5.75 16.75 C-5.75 14.11 -5.75 11.47 -5.75 8.75 C-6.41 8.75 -7.07 8.75 -7.75 8.75 C-7.404156 5.63740396 -6.87620033 3.92127187 -5 1.375 C-2.75 -0.25 -2.75 -0.25 0 0 Z " fill="#C0B6BF" transform="translate(61.75,9.25)"/>
<path d="M0 0 C1.70736328 0.00966797 1.70736328 0.00966797 3.44921875 0.01953125 C6.3125 0.1875 6.3125 0.1875 8.3125 1.1875 C8.3125 3.8275 8.3125 6.4675 8.3125 9.1875 C7.3225 9.6825 7.3225 9.6825 6.3125 10.1875 C6.6425 11.8375 6.9725 13.4875 7.3125 15.1875 C6.3225 15.6825 6.3225 15.6825 5.3125 16.1875 C5.10625 15.383125 4.9 14.57875 4.6875 13.75 C3.52743674 10.87047699 3.52743674 10.87047699 0.3125 10.25 C-0.6775 10.229375 -1.6675 10.20875 -2.6875 10.1875 C-4.9203877 12.4203877 -5.05528152 13.10659815 -5.4375 16.125 C-5.53546875 16.81464844 -5.6334375 17.50429688 -5.734375 18.21484375 C-5.85564823 20.5146202 -5.85564823 20.5146202 -3.6875 23.1875 C-5.375 24 -5.375 24 -7.6875 24.1875 C-13.51687365 19.17152732 -13.51687365 19.17152732 -13.85546875 15.234375 C-13.89528561 10.5519121 -13.86964417 6.44787672 -11.6875 2.1875 C-7.76751491 0.1072191 -4.38928238 -0.05505371 0 0 Z " fill="#D3CCD2" transform="translate(47.6875,16.8125)"/>
<path d="M0 0 C3.71713767 0.99369027 4.97472804 3.34314566 6.97265625 6.52734375 C6.97265625 7.51734375 6.97265625 8.50734375 6.97265625 9.52734375 C5.76609375 9.86765625 5.76609375 9.86765625 4.53515625 10.21484375 C3.68953125 10.64796875 2.84390625 11.08109375 1.97265625 11.52734375 C1.07879461 14.07509681 1.07879461 14.07509681 0.97265625 16.52734375 C-1.33984375 16.33984375 -1.33984375 16.33984375 -4.02734375 15.52734375 C-5.05747652 13.87913131 -6.05849003 12.21230673 -7.02734375 10.52734375 C-9.11268008 9.64912063 -9.11268008 9.64912063 -11.02734375 9.52734375 C-10.6965077 6.54981929 -10.15319023 4.71359654 -8.46484375 2.21484375 C-5.63889277 0.25841615 -3.4341074 -0.16047231 0 0 Z " fill="#6B606A" transform="translate(34.02734375,8.47265625)"/>
<path d="M0 0 C3.875 1.75 3.875 1.75 5 4 C5.50282832 9.50638223 5.71321529 14.40239776 3.4375 19.5 C0.55973089 22.45155806 -2.04835243 24.69924934 -6 26 C-9.42941701 25.83134015 -11.93339618 25.53330191 -15 24 C-15 23.34 -15 22.68 -15 22 C-12 21 -12 21 -8.4375 21.0625 C-4.93385359 21.39661064 -4.93385359 21.39661064 -3 19 C-2.83312552 16.41645782 -2.83312552 16.41645782 -3 14 C-2.34 14 -1.68 14 -1 14 C-1.33 12.02 -1.66 10.04 -2 8 C-1.34 8 -0.68 8 0 8 C0 5.36 0 2.72 0 0 Z " fill="#DDCCC8" transform="translate(25,18)"/>
<path d="M0 0 C0.86625 -0.01675781 1.7325 -0.03351562 2.625 -0.05078125 C5 0.3125 5 0.3125 6.80859375 1.6875 C8 3.3125 8 3.3125 8.0625 5.625 C6.52724581 9.50829 4.07155133 11.50235729 1 14.3125 C-2.83776322 12.74896684 -5.34999338 10.47778569 -8 7.3125 C-8.5 4.625 -8.5 4.625 -8 2.3125 C-4.78169935 0.16696623 -3.73213493 0.01666132 0 0 Z " fill="#FE5225" transform="translate(32,40.6875)"/>
<path d="M0 0 C2.375 0.875 2.375 0.875 4.375 2.875 C5.34208589 6.29979288 5.99691235 9.63117529 4.375 12.875 C1.26577804 14.42961098 -1.21319639 14.24055039 -4.625 13.875 C-6.625 12.8125 -6.625 12.8125 -7.625 10.875 C-7.55359568 6.94776266 -7.13912493 4.60946419 -4.875 1.375 C-2.625 -0.125 -2.625 -0.125 0 0 Z " fill="#BD8585" transform="translate(17.625,26.125)"/>
<path d="M0 0 C3.56942391 0.19294183 4.78296477 0.77709895 7.3125 3.375 C9 6 9 6 9 9 C7.34467377 10.01866229 5.67739862 11.01810813 4 12 C3.67 12.99 3.34 13.98 3 15 C2.34 15 1.68 15 1 15 C-1.35033491 10.44622611 -1.4457809 6.01762683 -1 1 C-0.67 0.67 -0.34 0.34 0 0 Z " fill="#9C605F" transform="translate(1,9)"/>
<path d="M0 0 C0.7425 0.2475 1.485 0.495 2.25 0.75 C2.6190205 10.16002278 2.6190205 10.16002278 0.25 14.75 C-0.41 14.75 -1.07 14.75 -1.75 14.75 C-1.9975 13.945625 -2.245 13.14125 -2.5 12.3125 C-3.47238859 9.578919 -3.47238859 9.578919 -5.875 8.9375 C-6.49375 8.875625 -7.1125 8.81375 -7.75 8.75 C-7.404156 5.63740396 -6.87620033 3.92127187 -5 1.375 C-2.75 -0.25 -2.75 -0.25 0 0 Z " fill="#695F69" transform="translate(61.75,9.25)"/>
<path d="M0 0 C-0.01160156 0.59167969 -0.02320313 1.18335938 -0.03515625 1.79296875 C-0.08322386 6.00231785 -0.06006883 9.8922333 1 14 C0.01 14.33 -0.98 14.66 -2 15 C-2.4125 14.195625 -2.825 13.39125 -3.25 12.5625 C-4.73452331 9.85890282 -4.73452331 9.85890282 -7.1875 9.1875 C-7.785625 9.125625 -8.38375 9.06375 -9 9 C-8.6507442 5.85669777 -8.16074267 4.20508548 -6.1875 1.6875 C-4 0 -4 0 0 0 Z " fill="#9A5F5F" transform="translate(32,9)"/>
<path d="M0 0 C1.32 0.33 2.64 0.66 4 1 C4.9375 3.5625 4.9375 3.5625 5 7 C2.95937374 9.67631874 0.56785409 11.83557436 -2 14 C-2.99 13.67 -3.98 13.34 -5 13 C-4.55527344 12.56429687 -4.11054688 12.12859375 -3.65234375 11.6796875 C-1.91452188 9.85081801 -0.37422105 8.1184146 1 6 C1.04385696 2.65404064 1.04385696 2.65404064 0 0 Z " fill="#F24624" transform="translate(35,41)"/>
<path d="M0 0 C0.66 0.33 1.32 0.66 2 1 C2.3690205 10.41002278 2.3690205 10.41002278 0 15 C-0.66 15 -1.32 15 -2 15 C-1.47462276 9.9697924 -0.89405214 4.98114761 0 0 Z " fill="#585159" transform="translate(62,9)"/>
<path d="M0 0 C3.13506611 0.33589994 4.025249 1.02665172 6.25 3.375 C8 6 8 6 8 9 C6.125 8.875 6.125 8.875 4 8 C2.75 4.9375 2.75 4.9375 2 2 C1.34 2 0.68 2 0 2 C0 1.34 0 0.68 0 0 Z " fill="#5B545C" transform="translate(33,9)"/>
<path d="M0 0 C1.32 0 2.64 0 4 0 C3.67 1.65 3.34 3.3 3 5 C3.66 5 4.32 5 5 5 C5 5.66 5 6.32 5 7 C2.69 7 0.38 7 -2 7 C-2 6.34 -2 5.68 -2 5 C-1.34 5 -0.68 5 0 5 C-0.2784375 4.0409375 -0.2784375 4.0409375 -0.5625 3.0625 C-0.7790625 2.0415625 -0.7790625 2.0415625 -1 1 C-0.67 0.67 -0.34 0.34 0 0 Z " fill="#905959" transform="translate(15,30)"/>
<path d="M0 0 C2.0625 0.4375 2.0625 0.4375 4 1 C3.67 2.32 3.34 3.64 3 5 C3.66 5 4.32 5 5 5 C5 5.66 5 6.32 5 7 C2.69 7 0.38 7 -2 7 C-2 6.34 -2 5.68 -2 5 C-1.34 5 -0.68 5 0 5 C-0.2784375 4.0409375 -0.2784375 4.0409375 -0.5625 3.0625 C-0.7790625 2.0415625 -0.7790625 2.0415625 -1 1 C-0.67 0.67 -0.34 0.34 0 0 Z " fill="#625A63" transform="translate(46,30)"/>
<path d="M0 0 C4.60189864 1.15047466 5.44200928 2.16301393 8 6 C8 6.99 8 7.98 8 9 C7.01 9 6.02 9 5 9 C3.35 6.03 1.7 3.06 0 0 Z " fill="#895555" transform="translate(2,9)"/>
<path d="M0 0 C0.33 0.99 0.66 1.98 1 3 C-1 5 -1 5 -4.125 5.125 C-5.548125 5.063125 -5.548125 5.063125 -7 5 C-6.67 3.68 -6.34 2.36 -6 1 C-4.7934375 1.0309375 -4.7934375 1.0309375 -3.5625 1.0625 C-1.06645115 1.29633621 -1.06645115 1.29633621 0 0 Z " fill="#ADA2AC" transform="translate(52,35)"/>
<path d="M0 0 C0.33 0.99 0.66 1.98 1 3 C-0.1875 4.5 -0.1875 4.5 -2 6 C-4.6875 6.1875 -4.6875 6.1875 -7 6 C-6.21625 5.38125 -5.4325 4.7625 -4.625 4.125 C-2.03162353 2.10141339 -2.03162353 2.10141339 0 0 Z " fill="#B06F6F" transform="translate(22,34)"/>
<path d="M0 0 C2.35953094 2.35953094 2.49141413 3.77895617 3 7 C2.01 7.33 1.02 7.66 0 8 C-1.125 2.25 -1.125 2.25 0 0 Z " fill="#864A4A" transform="translate(30,16)"/>
</svg>
