<?xml version="1.0" encoding="UTF-8"?>
<svg version="1.1" xmlns="http://www.w3.org/2000/svg" width="64" height="64">
<path d="M0 0 C5.75057206 1.46378198 9.20114259 5.02046388 12.4375 9.875 C12.98706507 15.15082467 12.98706507 15.15082467 11.17578125 17.53759766 C9.05435881 19.16978194 7.96505311 19.26095909 5.3125 19.2734375 C4.52359375 19.27730469 3.7346875 19.28117187 2.921875 19.28515625 C2.10203125 19.27355469 1.2821875 19.26195313 0.4375 19.25 C-0.79226562 19.26740234 -0.79226562 19.26740234 -2.046875 19.28515625 C-3.23023438 19.27935547 -3.23023438 19.27935547 -4.4375 19.2734375 C-5.15679688 19.27005371 -5.87609375 19.26666992 -6.6171875 19.26318359 C-9.1365778 18.76044381 -10.01213268 17.89483645 -11.5625 15.875 C-12.25 12.6875 -12.25 12.6875 -11.5625 8.875 C-8.45815855 4.39095124 -5.34966307 1.31395233 0 0 Z M-3.3515625 4.30078125 C-3.95742187 4.92339844 -4.56328125 5.54601563 -5.1875 6.1875 C-6.10402344 7.10982422 -6.10402344 7.10982422 -7.0390625 8.05078125 C-8.77507029 9.90374589 -8.77507029 9.90374589 -9.5625 12.875 C-8.5725 14.36 -8.5725 14.36 -7.5625 15.875 C-5.03000062 16.20224481 -5.03000062 16.20224481 -2.1875 16 C3.11502501 15.7856122 3.11502501 15.7856122 5.6640625 16.4921875 C6.24929687 16.61851563 6.83453125 16.74484375 7.4375 16.875 C9.75096333 15.02210852 9.75096333 15.02210852 9.5 12.125 C8.05598251 7.70800531 5.36675128 5.29432066 1.4375 2.875 C-1.55276749 2.56338183 -1.55276749 2.56338183 -3.3515625 4.30078125 Z " fill="#A262F5" transform="translate(18.5625,42.125)"/>
<path d="M0 0 C3.87034179 2.82727096 7.22090114 5.90575564 8.9140625 10.45703125 C9 13 9 13 8.125 15.78125 C5.71605103 18.29647613 5.19851119 18.36714696 1.875 18.59375 C0.24970823 18.58843859 -1.37567105 18.55618748 -3 18.5 C-3.81984375 18.50257812 -4.6396875 18.50515625 -5.484375 18.5078125 C-11.49480872 18.4096028 -11.49480872 18.4096028 -13.7019043 16.62011719 C-15.49690294 14.37982925 -15.88414398 12.86636364 -16 10 C-14.63671875 7.578125 -14.63671875 7.578125 -12.6875 5.25 C-12.05199219 4.47140625 -11.41648437 3.6928125 -10.76171875 2.890625 C-7.4799336 -0.63129077 -4.69384477 -0.68136456 0 0 Z M-7.4375 4.3125 C-8.7059375 5.6428125 -8.7059375 5.6428125 -10 7 C-10.61875 7.495 -11.2375 7.99 -11.875 8.5 C-13.30665478 10.05033912 -13.30665478 10.05033912 -12.6875 12.6875 C-12.3471875 13.8321875 -12.3471875 13.8321875 -12 15 C-8.63993308 16.12002231 -6.3771713 15.69503365 -2.9296875 15.18359375 C-0.74990876 14.97620589 0.89988263 15.45552513 3 16 C3.99 15.34 4.98 14.68 6 14 C5.51594564 9.68819268 4.37995134 7.9410446 1.0625 5.1875 C0.35222656 4.58292969 -0.35804687 3.97835938 -1.08984375 3.35546875 C-4.20045179 1.14814566 -4.64275254 1.66107292 -7.4375 4.3125 Z " fill="#DAA3DE" transform="translate(49,16)"/>
<path d="M0 0 C1.4540625 0.0309375 1.4540625 0.0309375 2.9375 0.0625 C3.9275 2.3725 4.9175 4.6825 5.9375 7.0625 C6.72125 7.000625 7.505 6.93875 8.3125 6.875 C9.611875 6.9678125 9.611875 6.9678125 10.9375 7.0625 C12.9375 10.0625 12.9375 10.0625 12.75 13.125 C11.9375 16.0625 11.9375 16.0625 8.9375 18.0625 C6.25 17.6875 6.25 17.6875 3.9375 17.0625 C3.6075 15.0825 3.2775 13.1025 2.9375 11.0625 C2.36 11.31 1.7825 11.5575 1.1875 11.8125 C-1.0625 12.0625 -1.0625 12.0625 -3.375 10.5625 C-5.0625 8.0625 -5.0625 8.0625 -4.875 4.375 C-3.82101393 0.07797988 -3.82101393 0.07797988 0 0 Z M-1.0625 2.0625 C-2.35883621 3.12895115 -2.35883621 3.12895115 -2.125 5.625 C-2.104375 6.429375 -2.08375 7.23375 -2.0625 8.0625 C-0.7425 8.0625 0.5775 8.0625 1.9375 8.0625 C1.9375 6.4125 1.9375 4.7625 1.9375 3.0625 C0.9475 2.7325 -0.0425 2.4025 -1.0625 2.0625 Z M7.9375 9.0625 C7.2775 10.7125 6.6175 12.3625 5.9375 14.0625 C7.2575 14.0625 8.5775 14.0625 9.9375 14.0625 C9.6075 12.4125 9.2775 10.7625 8.9375 9.0625 C8.6075 9.0625 8.2775 9.0625 7.9375 9.0625 Z " fill="#BB81EA" transform="translate(24.0625,29.9375)"/>
<path d="M0 0 C2.375 0.75 2.375 0.75 3.375 1.75 C3.64814815 7.48611111 3.64814815 7.48611111 3.375 9.75 C1.375 11.75 1.375 11.75 -1.125 12.0625 C-2.3625 11.9078125 -2.3625 11.9078125 -3.625 11.75 C-5.93782587 8.28076119 -6.04978586 6.82794425 -5.625 2.75 C-3.92079816 -0.03053984 -3.27136899 -0.31155895 0 0 Z M-2.625 2.75 C-2.625 4.73 -2.625 6.71 -2.625 8.75 C-1.635 8.75 -0.645 8.75 0.375 8.75 C1.38611093 5.70086772 1.38611093 5.70086772 0.375 2.75 C-0.615 2.75 -1.605 2.75 -2.625 2.75 Z " fill="#B779ED" transform="translate(14.625,30.25)"/>
<path d="M0 0 C1.9375 0.75 1.9375 0.75 3.9375 2.75 C4.28240322 6.80261287 4.23913882 8.29754176 1.9375 11.75 C-0.5625 12.0625 -0.5625 12.0625 -3.0625 11.75 C-5.38778287 9.42471713 -5.35761025 8.90334102 -5.375 5.75 C-5.39175781 5.04875 -5.40851562 4.3475 -5.42578125 3.625 C-5.30589844 3.00625 -5.18601563 2.3875 -5.0625 1.75 C-2.0625 -0.25 -2.0625 -0.25 0 0 Z M-2.0625 2.75 C-2.3925 4.4 -2.7225 6.05 -3.0625 7.75 C-1.5775 8.74 -1.5775 8.74 -0.0625 9.75 C1.23383621 8.68354885 1.23383621 8.68354885 1 6.1875 C0.979375 5.383125 0.95875 4.57875 0.9375 3.75 C-0.0525 3.42 -1.0425 3.09 -2.0625 2.75 Z " fill="#EEB9D2" transform="translate(41.0625,3.25)"/>
<path d="M0 0 C2.5 0.25 2.5 0.25 4.5 2.25 C5.05186722 8.32053942 5.05186722 8.32053942 3.3125 11.25 C1.5 12.25 1.5 12.25 -1.125 12.0625 C-3.5 11.25 -3.5 11.25 -4.5 9.25 C-4.6875 5.75 -4.6875 5.75 -4.5 2.25 C-2.5 0.25 -2.5 0.25 0 0 Z M-0.5 2.25 C-1.60636395 4.64068734 -1.60636395 4.64068734 -2.5 7.25 C-2.17 7.91 -1.84 8.57 -1.5 9.25 C-0.51 9.25 0.48 9.25 1.5 9.25 C1.83 7.6 2.16 5.95 2.5 4.25 C1.51 3.59 0.52 2.93 -0.5 2.25 Z " fill="#EFBAD4" transform="translate(50.5,2.75)"/>
<path d="M0 0 C2.4375 0.1875 2.4375 0.1875 3.4375 1.1875 C3.8985052 7.41107019 3.8985052 7.41107019 2.25 10.1875 C0.4375 11.1875 0.4375 11.1875 -2.1875 10.9375 C-4.5625 10.1875 -4.5625 10.1875 -5.5625 9.1875 C-4.75892857 0.34821429 -4.75892857 0.34821429 0 0 Z M-1.5625 3.1875 C-1.8925 4.8375 -2.2225 6.4875 -2.5625 8.1875 C-1.2425 7.5275 0.0775 6.8675 1.4375 6.1875 C1.1075 5.1975 0.7775 4.2075 0.4375 3.1875 C-0.2225 3.1875 -0.8825 3.1875 -1.5625 3.1875 Z " fill="#F0BDD6" transform="translate(59.5625,9.8125)"/>
<path d="M0 0 C2.3125 -0.25 2.3125 -0.25 5 0 C7.32411336 2.16382968 7.93683957 3.4694524 8.3125 6.625 C8 9 8 9 6 11 C2.70285207 10.67028521 1.3773161 10.3773161 -1 8 C-1.33333333 2.66666667 -1.33333333 2.66666667 0 0 Z M2 3 C2 4.32 2 5.64 2 7 C2.99 7.33 3.98 7.66 5 8 C4.67 6.35 4.34 4.7 4 3 C3.34 3 2.68 3 2 3 Z " fill="#A769F2" transform="translate(2,37)"/>
<path d="M0 0 C2.5 -0.375 2.5 -0.375 5 0 C7 3 7 3 6.8125 6.0625 C6 9 6 9 3 11 C0.3125 10.625 0.3125 10.625 -2 10 C-2.25 3.375 -2.25 3.375 0 0 Z M2 2 C1.34 3.65 0.68 5.3 0 7 C1.32 7 2.64 7 4 7 C3.67 5.35 3.34 3.7 3 2 C2.67 2 2.34 2 2 2 Z " fill="#A968F1" transform="translate(30,37)"/>
<path d="M0 0 C3 0.3125 3 0.3125 6 1 C7.49106457 3.98212913 7.11941467 6.71609658 7 10 C6 11 6 11 3.625 11.375 C1 11 1 11 -0.875 8.8125 C-2.15099193 5.62252017 -2.07232217 4.21696652 -1 1 C-0.67 0.67 -0.34 0.34 0 0 Z M1 3 C1.33 4.65 1.66 6.3 2 8 C2.99 8 3.98 8 5 8 C4.67 6.35 4.34 4.7 4 3 C3.01 3 2.02 3 1 3 Z " fill="#EFBAD2" transform="translate(29,10)"/>
<path d="M0 0 C0.66 0.33 1.32 0.66 2 1 C2 1.66 2 2.32 2 3 C1.34 3 0.68 3 0 3 C0 3.99 0 4.98 0 6 C-0.99 6.33 -1.98 6.66 -3 7 C-2.625 4.0625 -2.625 4.0625 -2 1 C-1.34 0.67 -0.68 0.34 0 0 Z " fill="#C089E8" transform="translate(12,30)"/>
</svg>
